{
  "accessors": [
    {
      "bufferView": 2,
      "componentType": 5126,
      "count": 634,
      "max": [
        11.579713821411133,
        5.157497406005859,
        0.8951360583305359
      ],
      "min": [
        -13.26248836517334,
        -7.987224102020264,
        -0.8952071070671082
      ],
      "type": "VEC3"
    },
    {
      "bufferView": 2,
      "byteOffset": 7608,
      "componentType": 5126,
      "count": 634,
      "max": [
        0.999891996383667,
        0.9999943971633911,
        1.0
      ],
      "min": [
        -0.9988026022911072,
        -0.9981261491775513,
        -1.0
      ],
      "type": "VEC3"
    },
    {
      "bufferView": 3,
      "componentType": 5126,
      "count": 634,
      "max": [
        0.9742719531059265,
        0.9996724724769592,
        1.0,
        1.0
      ],
      "min": [
        -0.9987606406211853,
        -0.9931119680404663,
        -1.0,
        -1.0
      ],
      "type": "VEC4"
    },
    {
      "bufferView": 1,
      "componentType": 5126,
      "count": 634,
      "max": [
        0.8040828704833984,
        0.8882637023925781
      ],
      "min": [
        0.2459430694580078,
        0.0
      ],
      "type": "VEC2"
    },
    {
      "bufferView": 1,
      "byteOffset": 5072,
      "componentType": 5126,
      "count": 634,
      "max": [
        0.8040828704833984,
        0.8882637023925781
      ],
      "min": [
        0.2459430694580078,
        0.0
      ],
      "type": "VEC2"
    },
    {
      "bufferView": 1,
      "byteOffset": 10144,
      "componentType": 5126,
      "count": 634,
      "max": [
        0.8040828704833984,
        0.8882637023925781
      ],
      "min": [
        0.2459430694580078,
        0.0
      ],
      "type": "VEC2"
    },
    {
      "bufferView": 1,
      "byteOffset": 15216,
      "componentType": 5126,
      "count": 634,
      "max": [
        0.8040828704833984,
        0.8882637023925781
      ],
      "min": [
        0.2459430694580078,
        0.0
      ],
      "type": "VEC2"
    },
    {
      "bufferView": 0,
      "componentType": 5125,
      "count": 1620,
      "type": "SCALAR"
    },
    {
      "bufferView": 2,
      "byteOffset": 15216,
      "componentType": 5126,
      "count": 330,
      "max": [
        12.758583068847656,
        7.000490188598633,
        1.5479029417037964
      ],
      "min": [
        -15.208556175231934,
        -10.238609313964844,
        -1.5479737520217896
      ],
      "type": "VEC3"
    },
    {
      "bufferView": 2,
      "byteOffset": 19176,
      "componentType": 5126,
      "count": 330,
      "max": [
        0.9784740209579468,
        0.9999299049377441,
        1.0
      ],
      "min": [
        -0.9758447408676147,
        -0.9976500272750854,
        -1.0
      ],
      "type": "VEC3"
    },
    {
      "bufferView": 3,
      "byteOffset": 10144,
      "componentType": 5126,
      "count": 330,
      "max": [
        0.9952593445777893,
        0.9931076765060425,
        1.0,
        1.0
      ],
      "min": [
        -0.9961376786231995,
        -0.9931092262268066,
        -1.0,
        1.0
      ],
      "type": "VEC4"
    },
    {
      "bufferView": 1,
      "byteOffset": 20288,
      "componentType": 5126,
      "count": 330,
      "max": [
        0.7845858931541443,
        1.0
      ],
      "min": [
        0.0,
        0.0
      ],
      "type": "VEC2"
    },
    {
      "bufferView": 1,
      "byteOffset": 22928,
      "componentType": 5126,
      "count": 330,
      "max": [
        0.7845858931541443,
        1.0
      ],
      "min": [
        0.0,
        0.0
      ],
      "type": "VEC2"
    },
    {
      "bufferView": 1,
      "byteOffset": 25568,
      "componentType": 5126,
      "count": 330,
      "max": [
        0.7845858931541443,
        1.0
      ],
      "min": [
        0.0,
        0.0
      ],
      "type": "VEC2"
    },
    {
      "bufferView": 1,
      "byteOffset": 28208,
      "componentType": 5126,
      "count": 330,
      "max": [
        0.7845858931541443,
        1.0
      ],
      "min": [
        0.0,
        0.0
      ],
      "type": "VEC2"
    },
    {
      "bufferView": 0,
      "byteOffset": 6480,
      "componentType": 5125,
      "count": 900,
      "type": "SCALAR"
    }
  ],
  "asset": {
    "extras": {
      "author": "iPau (https://sketchfab.com/iPau)",
      "license": "CC-BY-4.0 (http://creativecommons.org/licenses/by/4.0/)",
      "source": "https://sketchfab.com/3d-models/japnese-torii-gate-42c716e1f0264afd8964c412049b2558",
      "title": "Japnese Torii gate"
    },
    "generator": "Sketchfab-13.74.0",
    "version": "2.0"
  },
  "bufferViews": [
    {
      "buffer": 0,
      "byteLength": 10080,
      "name": "floatBufferViews",
      "target": 34963
    },
    {
      "buffer": 0,
      "byteLength": 30848,
      "byteOffset": 10080,
      "byteStride": 8,
      "name": "floatBufferViews",
      "target": 34962
    },
    {
      "buffer": 0,
      "byteLength": 23136,
      "byteOffset": 40928,
      "byteStride": 12,
      "name": "floatBufferViews",
      "target": 34962
    },
    {
      "buffer": 0,
      "byteLength": 15424,
      "byteOffset": 64064,
      "byteStride": 16,
      "name": "floatBufferViews",
      "target": 34962
    }
  ],
  "buffers": [
    {
      "byteLength": 79488,
      "uri": "scene.bin"
    }
  ],
  "images": [
    {
      "uri": "textures/material_baseColor.png"
    },
    {
      "uri": "textures/material_metallicRoughness.png"
    },
    {
      "uri": "textures/material_normal.png"
    },
    {
      "uri": "textures/blak_baseColor.png"
    },
    {
      "uri": "textures/blak_metallicRoughness.png"
    },
    {
      "uri": "textures/blak_normal.png"
    }
  ],
  "materials": [
    {
      "doubleSided": true,
      "name": "material",
      "normalTexture": {
        "index": 2
      },
      "pbrMetallicRoughness": {
        "baseColorTexture": {
          "index": 0
        },
        "metallicFactor": 0.0,
        "metallicRoughnessTexture": {
          "index": 1
        }
      }
    },
    {
      "doubleSided": true,
      "name": "blak",
      "normalTexture": {
        "index": 5
      },
      "pbrMetallicRoughness": {
        "baseColorTexture": {
          "index": 3
        },
        "metallicRoughnessTexture": {
          "index": 4
        }
      }
    }
  ],
  "meshes": [
    {
      "name": "Object_0",
      "primitives": [
        {
          "attributes": {
            "NORMAL": 1,
            "POSITION": 0,
            "TANGENT": 2,
            "TEXCOORD_0": 3,
            "TEXCOORD_1": 4,
            "TEXCOORD_2": 5,
            "TEXCOORD_3": 6
          },
          "indices": 7,
          "material": 0,
          "mode": 4
        }
      ]
    },
    {
      "name": "Object_1",
      "primitives": [
        {
          "attributes": {
            "NORMAL": 9,
            "POSITION": 8,
            "TANGENT": 10,
            "TEXCOORD_0": 11,
            "TEXCOORD_1": 12,
            "TEXCOORD_2": 13,
            "TEXCOORD_3": 14
          },
          "indices": 15,
          "material": 1,
          "mode": 4
        }
      ]
    }
  ],
  "nodes": [
    {
      "children": [
        1
      ],
      "matrix": [
        0.3194192945957184,
        0.0,
        0.0,
        0.0,
        0.0,
        1.222918704587959e-16,
        -0.3194192945957184,
        0.0,
        0.0,
        0.3194192945957184,
        1.222918704587959e-16,
        0.0,
        0.0,
        0.0,
        0.0,
        1.0
      ],
      "name": "Sketchfab_model"
    },
    {
      "children": [
        2
      ],
      "name": "root"
    },
    {
      "children": [
        3
      ],
      "matrix": [
        1.0,
        0.0,
        0.0,
        0.0,
        0.0,
        2.220446049250313e-16,
        1.0,
        0.0,
        0.0,
        -1.0,
        2.220446049250313e-16,
        0.0,
        0.0,
        0.0,
        0.0,
        1.0
      ],
      "name": "GLTF_SceneRootNode"
    },
    {
      "children": [
        4,
        5
      ],
      "matrix": [
        0.5455411883122319,
        -0.09013455381509741,
        -0.0,
        0.0,
        0.1261736164588727,
        0.7636683352072662,
        0.0,
        0.0,
        0.0,
        0.0,
        0.5529370903968811,
        0.0,
        0.0,
        6.934337615966797,
        0.0,
        1.0
      ],
      "name": "FINAL_Tori_0"
    },
    {
      "mesh": 0,
      "name": "Object_4"
    },
    {
      "mesh": 1,
      "name": "Object_5"
    }
  ],
  "samplers": [
    {
      "magFilter": 9729,
      "minFilter": 9987,
      "wrapS": 10497,
      "wrapT": 10497
    }
  ],
  "scene": 0,
  "scenes": [
    {
      "name": "Sketchfab_Scene",
      "nodes": [
        0
      ]
    }
  ],
  "textures": [
    {
      "sampler": 0,
      "source": 0
    },
    {
      "sampler": 0,
      "source": 1
    },
    {
      "sampler": 0,
      "source": 2
    },
    {
      "sampler": 0,
      "source": 3
    },
    {
      "sampler": 0,
      "source": 4
    },
    {
      "sampler": 0,
      "source": 5
    }
  ]
}
